<svg xmlns="http://www.w3.org/2000/svg" viewBox="0 0 1024 1024" role="img" aria-labelledby="title desc">
  <title id="title">Service LLD</title>
  <desc id="desc">Black, white and gold Service LLD luxury car rental logo.</desc>
  <defs>
    <radialGradient id="bg" cx="68%" cy="16%" r="86%">
      <stop offset="0" stop-color="#4A4A46"/>
      <stop offset="0.28" stop-color="#252523"/>
      <stop offset="0.72" stop-color="#0C0C0B"/>
      <stop offset="1" stop-color="#030303"/>
    </radialGradient>
    <linearGradient id="gold" x1="0" x2="1" y1="0" y2="1">
      <stop offset="0" stop-color="#FFF3BD"/>
      <stop offset="0.2" stop-color="#D8B456"/>
      <stop offset="0.48" stop-color="#8F6426"/>
      <stop offset="0.72" stop-color="#FFF1B2"/>
      <stop offset="1" stop-color="#A17126"/>
    </linearGradient>
    <linearGradient id="body" x1="0" x2="1" y1="0" y2="0">
      <stop offset="0" stop-color="#F9FAFA"/>
      <stop offset="0.28" stop-color="#BFC2C4"/>
      <stop offset="0.52" stop-color="#FFFFFF"/>
      <stop offset="0.78" stop-color="#D5D6D5"/>
      <stop offset="1" stop-color="#FFFFFF"/>
    </linearGradient>
    <linearGradient id="glass" x1="0" x2="1" y1="0" y2="1">
      <stop offset="0" stop-color="#111111"/>
      <stop offset="0.52" stop-color="#242424"/>
      <stop offset="1" stop-color="#070707"/>
    </linearGradient>
    <filter id="softShadow" x="-12%" y="-18%" width="124%" height="136%">
      <feDropShadow dx="0" dy="10" stdDeviation="10" flood-color="#000000" flood-opacity="0.58"/>
    </filter>
    <filter id="goldGlow" x="-8%" y="-25%" width="116%" height="150%">
      <feDropShadow dx="0" dy="2" stdDeviation="2" flood-color="#C99D3B" flood-opacity="0.48"/>
    </filter>
    <pattern id="grain" width="74" height="74" patternUnits="userSpaceOnUse">
      <path d="M13 5h1v1h-1zM43 19h1v1h-1zM65 39h1v1h-1zM21 55h1v1h-1zM6 68h1v1H6zM53 66h1v1h-1z" fill="#FFFFFF" opacity="0.08"/>
    </pattern>
  </defs>

  <rect width="1024" height="1024" fill="url(#bg)"/>
  <rect width="1024" height="1024" fill="url(#grain)" opacity="0.48"/>

  <g filter="url(#softShadow)">
    <path d="M117 545h790" stroke="url(#gold)" stroke-width="4" stroke-linecap="round"/>

    <g transform="translate(165 295)">
      <path d="M26 168c14-44 34-74 59-91h197c94 0 180 3 260 9 28 24 51 54 69 91l46 7c13 2 23 13 23 27v49c0 25-20 46-45 46H19c-13 0-23-10-23-23v-50c0-33 7-54 22-63z" fill="url(#body)"/>
      <path d="M166 71h333c30 0 57 24 94 98H82c30-47 58-80 84-98z" fill="url(#gold)"/>
      <path d="M180 84h107l-13 84H103c24-39 50-68 77-84zM307 84h129l13 84H297zM464 86h44c23 0 47 27 72 82h-84z" fill="url(#glass)"/>
      <path d="M516 86l-7 82M296 82l-20 87M435 84l14 85" stroke="#090909" stroke-width="8" opacity="0.76"/>
      <path d="M113 183h506" stroke="#141414" stroke-width="6" opacity="0.8"/>
      <path d="M234 184v78M435 181v120M579 181v123" stroke="#1A1A19" stroke-width="3.4"/>
      <path d="M283 75h218c18 0 37 8 58 24l58 5c13 1 22 1 27 0 1 12-16 20-50 22-14-16-27-29-40-38-10-7-24-11-41-12z" fill="url(#gold)"/>
      <path d="M7 213h58l-11 25H0zM643 213h35v35h-47z" fill="#101010" opacity="0.9"/>
      <path d="M-2 258h111c19-32 52-54 91-54s72 22 91 54h263c19-32 52-54 91-54s72 22 91 54" fill="none" stroke="#101010" stroke-width="12" stroke-linecap="round"/>
      <circle cx="198" cy="287" r="68" fill="#0A0A0A" stroke="#F5F5F4" stroke-width="18"/>
      <circle cx="198" cy="287" r="48" fill="#111111"/>
      <circle cx="645" cy="287" r="68" fill="#0A0A0A" stroke="#F5F5F4" stroke-width="18"/>
      <circle cx="645" cy="287" r="48" fill="#111111"/>
      <path d="M187 202h24M370 201h24M547 202h25" stroke="#EFEFEF" stroke-width="5" stroke-linecap="round"/>
      <path d="M237 200v67M253 199v68M269 198v68" stroke="url(#gold)" stroke-width="7"/>
      <path d="M81 272h501" stroke="#101010" stroke-width="6"/>
      <path d="M344 270h150" stroke="#FFFFFF" stroke-width="3" opacity="0.38"/>
    </g>
  </g>

  <g filter="url(#goldGlow)">
    <text x="512" y="680" text-anchor="middle" font-family="Georgia, 'Times New Roman', serif" font-size="128" fill="url(#gold)" letter-spacing="10">Service LLD</text>
    <circle cx="471" cy="581" r="11" fill="url(#gold)"/>
    <path d="M119 714h788" stroke="url(#gold)" stroke-width="3" opacity="0.9"/>
  </g>
</svg>
